<?xml version="1.0" encoding="UTF-8" standalone="no"?>
<!-- Created with Inkscape (http://www.inkscape.org/) -->

<svg
   xmlns:dc="http://purl.org/dc/elements/1.1/"
   xmlns:cc="http://creativecommons.org/ns#"
   xmlns:rdf="http://www.w3.org/1999/02/22-rdf-syntax-ns#"
   xmlns:svg="http://www.w3.org/2000/svg"
   xmlns="http://www.w3.org/2000/svg"
   xmlns:sodipodi="http://sodipodi.sourceforge.net/DTD/sodipodi-0.dtd"
   xmlns:inkscape="http://www.inkscape.org/namespaces/inkscape"
   width="744.09448819"
   height="1052.3622047"
   id="svg2"
   version="1.1"
   inkscape:version="0.48.4 r9939"
   sodipodi:docname="actionable_analytics.logo.1.svg">
  <defs
     id="defs4" />
  <sodipodi:namedview
     id="base"
     pagecolor="#ffffff"
     bordercolor="#666666"
     borderopacity="1.0"
     inkscape:pageopacity="0.0"
     inkscape:pageshadow="2"
     inkscape:zoom="1.4002712"
     inkscape:cx="249.43593"
     inkscape:cy="560.26785"
     inkscape:document-units="px"
     inkscape:current-layer="layer1"
     showgrid="false"
     inkscape:window-width="2876"
     inkscape:window-height="1748"
     inkscape:window-x="0"
     inkscape:window-y="24"
     inkscape:window-maximized="0" />
  <metadata
     id="metadata7">
    <rdf:RDF>
      <cc:Work
         rdf:about="">
        <dc:format>image/svg+xml</dc:format>
        <dc:type
           rdf:resource="http://purl.org/dc/dcmitype/StillImage" />
        <dc:title></dc:title>
      </cc:Work>
    </rdf:RDF>
  </metadata>
  <g
     inkscape:label="Layer 1"
     inkscape:groupmode="layer"
     id="layer1">
    <text
       xml:space="preserve"
       style="font-size:40px;font-style:normal;font-variant:normal;font-weight:300;font-stretch:normal;line-height:125%;letter-spacing:0px;word-spacing:0px;fill:#000000;fill-opacity:1;stroke:none;font-family:Source Code Pro;-inkscape-font-specification:Source Code Pro Light"
       x="324.42719"
       y="239.70061"
       id="text2985"
       sodipodi:linespacing="125%"><tspan
         sodipodi:role="line"
         id="tspan2987"
         x="324.42719"
         y="239.70061" /></text>
    <path
       inkscape:connector-curvature="0"
       style="font-size:591.64160156px;font-style:normal;font-variant:normal;font-weight:500;font-stretch:normal;text-align:start;line-height:125%;letter-spacing:0px;word-spacing:0px;writing-mode:lr-tb;text-anchor:start;fill:#c40022;fill-opacity:1;stroke:none;font-family:Code2000;-inkscape-font-specification:Code2000 Medium"
       d="m 323.33096,198.05833 c -23.48571,10.20465 -42.26902,29.69246 -59.68228,48.22992 -0.75476,-13.24414 -1.90196,-26.51273 -1.7222,-39.78499 -1.25117,3.4956 -2.32658,7.05588 -3.19391,10.66563 -27.69843,87.20695 -55.07874,174.52835 -82.97904,261.66764 -10.28636,22.16481 -27.56716,29.31031 -50.00661,32.46606 -20.33407,1.7354 -31.407238,3.12689 -59.77622,2.81498 0,9.83082 -0.970698,18.81937 -0.970698,28.65019 26.378381,0.0337 64.285808,1.57941 97.038498,-6.537 38.16871,-12.10917 63.46346,-32.79803 76.74778,-73.25192 19.96455,-65.95971 46.40688,-146.16947 58.0227,-183.31749 9.0236,-27.1286 16.54094,-54.82453 26.52198,-81.60302 z"
       id="path3112" />
    <g
       transform="scale(1.0005647,0.99943563)"
       style="font-size:592.49682617px;font-style:normal;font-variant:normal;font-weight:500;font-stretch:normal;text-align:start;line-height:125%;letter-spacing:0px;word-spacing:0px;writing-mode:lr-tb;text-anchor:start;fill:#000000;fill-opacity:1;stroke:none;font-family:Code2000;-inkscape-font-specification:Code2000 Medium"
       id="text2989-8">
      <path
         d="M 279.45355,543.01141 411.08736,280.03309 387.36434,205.10307 c -3.08605,-9.25742 -7.52205,-17.74369 -13.30803,-25.45885 -5.78621,-7.71443 -13.30814,-11.57183 -22.5658,-11.5722 -9.25785,3.7e-4 -19.96212,2.41124 -32.11286,7.23262 -12.15087,4.82212 -25.74819,14.94779 -40.79202,30.37704 l 0,-29.50912 c 15.42957,-16.2007 29.02689,-26.61568 40.79202,-31.24495 11.765,-4.62848 22.46927,-6.94292 32.11286,-6.94332 20.05837,4e-4 38.57388,5.7865 55.54658,17.3583 16.9724,11.57258 29.70181,28.15939 38.18827,49.76048 l 85.63431,270.78956 c 3.08564,9.25782 7.52165,17.7441 13.30803,25.45885 5.78581,7.71484 13.30774,11.57223 22.5658,11.5722 8.8717,3e-5 19.47955,-2.41084 31.82356,-7.23262 12.34333,-4.82171 26.03709,-14.94738 41.08132,-30.37704 l 0,29.50912 c -15.42997,16.20111 -29.0273,26.61608 -40.79201,31.24495 -11.76541,4.62889 -22.46969,6.94332 -32.11287,6.94332 -20.05878,0 -38.57428,-5.78609 -55.54658,-17.3583 -16.9728,-11.57218 -29.70221,-28.15899 -38.18827,-49.76048 l -46.86742,-148.41351 -107.9108,215.53229 -38.76688,0"
         style=""
         id="path3145" />
    </g>
    <g
       transform="scale(1.1467585,0.87202319)"
       style="font-size:137.97895813px;font-style:normal;font-variant:normal;font-weight:normal;font-stretch:normal;text-align:start;line-height:125%;letter-spacing:0px;word-spacing:0px;writing-mode:lr-tb;text-anchor:start;fill:#000000;fill-opacity:1;stroke:none;font-family:Dream Orphans;-inkscape-font-specification:Dream Orphans"
       id="text4249">
      <path
         d="m 95.315185,701.62749 c -0.735928,4.69133 -3.771463,7.77286 -9.106612,9.24459 -11.222309,3.67948 -16.649476,9.52058 -16.281517,17.52333 -1.5e-5,4.87527 1.195801,9.15262 3.587453,12.83204 2.667571,4.04739 5.887077,6.07108 9.658527,6.07108 5.335152,0 9.198559,-4.27734 11.590233,-12.83205 l 0.551916,-4.27734 0,-28.56165 m 2.759579,49.67243 c -2.115719,-3.03554 -3.081571,-6.43902 -2.897558,-10.21045 -1.195858,3.3115 -3.403519,5.88711 -6.62299,7.72682 -2.943583,1.56377 -6.34706,2.34565 -10.210443,2.34565 -6.163078,0 -11.222302,-1.70174 -15.177686,-5.10522 -4.323345,-3.77142 -6.485013,-9.06061 -6.485011,-15.86758 0.367941,-11.22226 8.876635,-18.99507 25.526108,-23.31845 7.082884,-0.73584 11.452214,-4.50726 13.108001,-11.31427 l 0,-5.10522 c -4.1e-5,-3.58739 -1.471816,-7.12885 -4.415327,-10.62438 -2.943585,-3.58738 -6.577027,-5.38111 -10.900338,-5.38118 -5.243221,7e-5 -9.934501,2.66766 -14.073854,8.00278 l -4.139368,-1.93171 c 5.519145,-7.26681 13.56791,-10.90026 24.146317,-10.90034 6.714938,8e-5 12.096112,1.70182 16.143535,5.10522 4.41528,3.7715 6.62294,8.37079 6.62299,13.7979 l 0,52.432 c -5e-5,4.41534 0.82782,7.86481 2.48362,10.34843 l -13.107996,0 0,0"
         style=""
         id="path3091" />
      <path
         d="m 166.63306,739.15777 c -5.88715,8.37072 -13.47599,12.55608 -22.76653,12.55608 -4.69131,0 -8.83068,-0.96585 -12.41811,-2.89756 -3.58746,-2.02368 -6.577,-4.87525 -8.96863,-8.55469 -2.39164,-3.77141 -4.27735,-8.27872 -5.65714,-13.52194 -1.2878,-5.24317 -1.9777,-11.13027 -2.06968,-17.66131 1.47177,-27.31976 12.78604,-40.70371 33.94282,-40.15187 8.2787,-0.18389 13.75186,3.58753 16.4195,11.31427 l -4.13937,1.51777 c -2.29969,-5.61107 -6.53104,-8.6466 -12.69406,-9.10661 -13.42998,1.28788 -20.00697,12.8781 -19.73099,34.7707 -0.18399,6.07111 0.13796,11.59026 0.96585,16.55747 0.91984,4.87528 2.25364,9.06064 4.00139,12.55609 1.8397,3.40349 4.09335,6.07108 6.76097,8.00278 2.75955,1.83972 5.93306,2.75958 9.52055,2.75958 4.69124,0 9.29053,-3.21951 13.79789,-9.65853 l 3.03554,1.51777"
         style=""
         id="path3093" />
      <path
         d="m 210.118,747.43651 c -3.77147,2.75957 -7.77285,4.13936 -12.00417,4.13936 -3.03557,0 -5.88713,-0.50592 -8.5547,-1.51776 -2.57562,-1.01185 -4.78329,-2.39164 -6.62299,-4.13937 -1.83973,-1.83972 -3.31151,-4.00138 -4.41533,-6.48501 -1.01185,-2.5756 -1.51777,-5.38117 -1.51776,-8.41672 l 0,-57.81318 -6.34704,0 0,-2.89756 c 11.31426,8e-5 17.89126,-6.62291 19.73099,-19.86897 l 0,19.86897 10.62438,0 0,2.89756 -10.62438,0 0,59.74488 c -2e-5,3.4035 1.14981,6.57701 3.44948,9.52055 2.29962,3.3115 5.10519,4.96725 8.41671,4.96725 1.93167,0 4.13934,-0.96585 6.62299,-2.89756 l 1.24182,2.89756"
         style=""
         id="path3095" />
      <path
         d="m 227.38046,659.26795 c -2e-5,2.11577 -0.73591,3.95548 -2.20767,5.51916 -1.47179,1.56384 -3.31151,2.34572 -5.51916,2.34564 -2.11568,8e-5 -3.9554,-0.7818 -5.51915,-2.34564 -1.47178,-1.56368 -2.20767,-3.40339 -2.20767,-5.51916 0,-2.20757 0.73589,-4.04729 2.20767,-5.51916 1.56375,-1.56366 3.40347,-2.34554 5.51915,-2.34564 2.20765,10e-5 4.04737,0.78198 5.51916,2.34564 1.47176,1.47187 2.20765,3.31159 2.20767,5.51916 m -1.24182,92.03197 -13.38395,0 0,-76.99226 13.38395,-4.13937 0,81.13163"
         style=""
         id="path3097" />
      <path
         d="m 292.81697,710.32017 c -6e-5,22.53658 -6.16312,35.69056 -18.48918,39.46198 -5.5192,1.56376 -10.48644,2.34564 -14.90173,2.34564 -10.57841,0 -17.84529,-4.69128 -21.80068,-14.07385 -2.75958,-6.439 -4.13937,-15.77557 -4.13936,-28.00973 -1e-5,-10.2104 0.91985,-17.79923 2.75958,-22.76653 2.75957,-7.26682 8.18673,-12.18807 16.28151,-14.76375 5.24318,-1.74765 10.16442,-2.62152 14.76375,-2.6216 17.01735,8e-5 25.52605,13.47601 25.52611,40.42784 m -12.69407,1.79372 c -5e-5,-5.79507 -0.50597,-11.13025 -1.51776,-16.00556 -0.64395,-2.85151 -1.42583,-5.42711 -2.34565,-7.72682 -0.9199,-2.39157 -2.02373,-4.50725 -3.31149,-6.34703 -3.40352,-5.05916 -7.58888,-7.58877 -12.55609,-7.58884 -1.56379,7e-5 -3.31152,0.36802 -5.2432,1.10383 -5.51918,2.20773 -8.27875,13.06207 -8.27874,32.56303 -1e-5,26.58396 6.11705,39.87592 18.35121,39.87592 1.83968,0 3.72539,-0.27595 5.65713,-0.82787 6.16302,-1.74773 9.24454,-13.42994 9.24459,-35.04666"
         style=""
         id="path3099" />
      <path
         d="m 352.08756,751.29992 -13.38396,0 0,-59.60691 c -4e-5,-4.50725 -1.01189,-8.32467 -3.03554,-11.45226 -2.29969,-3.67936 -5.61118,-5.51908 -9.93448,-5.51916 -3.77145,0.0921 -6.85298,2.11575 -9.24459,6.07108 -2.1157,2.94362 -3.17354,6.34709 -3.17352,10.21044 l 0,60.29681 -13.24598,0 0,-76.99226 13.24598,-4.13937 0,11.45225 c 1.1958,-3.40341 3.54144,-6.43894 7.03693,-9.10661 3.31146,-1.74765 6.85292,-2.66751 10.62438,-2.75958 3.0355,8e-5 5.84106,0.506 8.41671,1.51777 2.57556,0.91994 4.78323,2.25373 6.62299,4.00139 1.93166,1.74781 3.40343,3.86348 4.41533,6.34703 1.10378,2.3917 1.65569,5.10529 1.65575,8.14076 l 0,61.53862"
         style=""
         id="path3101" />
      <path
         d="m 396.87466,701.62749 c -0.73592,4.69133 -3.77146,7.77286 -9.10661,9.24459 -11.22231,3.67948 -16.64947,9.52058 -16.28152,17.52333 -1e-5,4.87527 1.19581,9.15262 3.58746,12.83204 2.66757,4.04739 5.88708,6.07108 9.65852,6.07108 5.33516,0 9.19856,-4.27734 11.59024,-12.83205 l 0.55191,-4.27734 0,-28.56165 m 2.75958,49.67243 c -2.11572,-3.03554 -3.08157,-6.43902 -2.89756,-10.21045 -1.19585,3.3115 -3.40351,5.88711 -6.62299,7.72682 -2.94358,1.56377 -6.34706,2.34565 -10.21044,2.34565 -6.16308,0 -11.2223,-1.70174 -15.17768,-5.10522 -4.32335,-3.77142 -6.48502,-9.06061 -6.48501,-15.86758 0.36794,-11.22226 8.87663,-18.99507 25.5261,-23.31845 7.08289,-0.73584 11.45222,-4.50726 13.108,-11.31427 l 0,-5.10522 c -4e-5,-3.58739 -1.47181,-7.12885 -4.41532,-10.62438 -2.94359,-3.58738 -6.57703,-5.38111 -10.90034,-5.38118 -5.24322,7e-5 -9.9345,2.66766 -14.07385,8.00278 l -4.13937,-1.93171 c 5.51914,-7.26681 13.56791,-10.90026 24.14631,-10.90034 6.71494,8e-5 12.09612,1.70182 16.14354,5.10522 4.41528,3.7715 6.62294,8.37079 6.62299,13.7979 l 0,52.432 c -5e-5,4.41534 0.82782,7.86481 2.48362,10.34843 l -13.108,0 0,0"
         style=""
         id="path3103" />
      <path
         d="m 473.98765,710.04421 c -6e-5,10.48643 -1.88577,19.50104 -5.65714,27.04387 -4.78332,9.47456 -11.95822,14.21183 -21.52471,14.21184 -5.97912,-1e-5 -11.08434,-3.03554 -15.31567,-9.10662 l -2.75958,9.10662 -10.62438,0 0,-98.24102 13.38396,-4.13937 0,33.66686 c 3.1275,-8.92256 9.42854,-13.38387 18.90312,-13.38395 15.45359,0.73596 23.31838,14.34987 23.5944,40.84177 m -13.24598,3.03553 c -5e-5,-1.0118 -0.046,-2.16163 -0.13798,-3.44947 -5e-5,-1.28776 -0.046,-2.71354 -0.13798,-4.27735 -0.36799,-8.46265 -1.42583,-15.3156 -3.17351,-20.55886 -1.93175,-6.25498 -5.93314,-9.3825 -12.00417,-9.38257 -4.59933,7e-5 -8.14078,2.34571 -10.62438,7.03693 -2.1157,3.77148 -3.17354,8.09482 -3.17352,12.97002 l 0,36.97836 c -2e-5,3.67945 1.60974,7.22091 4.82926,10.62438 3.1275,3.3115 6.62297,4.96724 10.48641,4.96724 5.51912,0 9.42852,-4.73727 11.72821,-14.21183 1.47173,-5.51914 2.20761,-12.41808 2.20766,-20.69685"
         style=""
         id="path3105" />
      <path
         d="m 492.93389,751.29992 -13.38396,0 0,-96.86123 13.38396,-4.13937 0,101.0006"
         style=""
         id="path3107" />
      <path
         d="m 558.09447,705.62888 -43.60135,0 c -0.092,0.9199 -0.13799,1.83976 -0.13798,2.75958 -10e-6,0.9199 -10e-6,1.88575 0,2.89756 -0.092,4.1394 0.18396,8.14079 0.82788,12.00417 0.73587,3.86343 1.74771,7.68085 3.03553,11.45225 3.67942,8.37073 9.15258,12.55609 16.4195,12.55609 4.59926,0 9.15256,-3.21951 13.65992,-9.65853 l 3.17351,1.51777 c -5.88715,8.37072 -13.47598,12.55608 -22.76653,12.55608 -9.47457,0 -16.83344,-4.13936 -22.07663,-12.4181 -4.50732,-6.99092 -6.76097,-15.54561 -6.76097,-25.66409 0,-10.8543 2.6216,-20.65079 7.8648,-29.38952 6.25503,-10.02639 14.39578,-15.08562 24.42228,-15.17768 8.64664,-0.36787 15.31561,3.40356 20.00695,11.31427 3.95533,8.00284 5.93303,16.41955 5.93309,25.25015 m -9.7965,-4.96724 c -5e-5,-5.97903 -0.96591,-11.95812 -2.89756,-17.93727 -2.66764,-6.43894 -6.76101,-9.56646 -12.28013,-9.38257 -6.34706,1.01193 -10.6244,4.4614 -12.83204,10.34843 -1.28783,2.57567 -2.39166,5.28925 -3.3115,8.14076 -0.82789,2.75963 -1.47179,5.70318 -1.9317,8.83065 l 33.25293,0"
         style=""
         id="path3109" />
    </g>
    <g
       id="g3041"
       transform="matrix(1.5949575,0,0,1.5949575,152.74964,-507.75708)"
       style="fill-rule:nonzero">
      <path
         id="path3043"
         d="m 288.681,743.45 c 9.0625,-0.55176 16.25,5.33203 16.7822,14.4434 0.60058,10.3662 -7.65625,20.9912 -18.4522,23.7402 -3.73535,0.94239 -7.23144,0.83497 -10.2686,-0.122 -0.21973,-4.0918 0.57617,-8.3545 2.3291,-11.333 2.85645,-4.85351 7.18261,-4.43847 9.6582,0.92285 0.93262,2.0166 1.46972,4.44824 1.62597,6.95313 0.86426,-0.45899 1.70411,-0.97657 2.50489,-1.5332 -2.67578,-6.49414 -3.87208,-14.1846 5.71777,-27.6904 -2.78808,-2.23144 -7.0752,-3.31543 -12.4268,-2.62695 0.79103,-0.92285 1.63086,-1.8457 2.5293,-2.7539 z"
         inkscape:connector-curvature="0"
         style="fill:#000000" />
      <path
         id="path3045"
         d="m 286.474,754.446 c -0.77638,1.63087 -0.46388,2.97364 0.69335,2.99805 1.15235,0.0195 2.71972,-1.28906 3.4961,-2.9248 0.77636,-1.63086 0.46875,-2.97364 -0.68848,-2.99805 -1.15722,-0.0195 -2.72461,1.28906 -3.50097,2.9248 z m -0.78614,-4.6289 c -8.10548,9.93653 -11.5478,22.8418 -11.0644,34.3506 -4.78516,-1.91406 -8.29103,-6.52832 -8.65723,-12.3779 v -0.0684 c -0.60547,-10.376 7.67089,-21.0058 18.4814,-23.7451 4.19923,-1.05957 8.16406,-0.77636 11.4746,0.57618 -0.68847,1.96289 -1.84082,4.20899 -2.9834,5.90331 -2.39257,3.55469 -5.83007,5.7959 -7.67577,5.00978 -1.84083,-0.79103 -1.39649,-4.31641 1.00097,-7.87598 0.55175,-0.82031 1.1621,-1.57227 1.79688,-2.23145 -0.78125,0.10738 -1.57228,0.25879 -2.37305,0.45899 z"
         inkscape:connector-curvature="0"
         style="fill:#b80017" />
    </g>
    <g
       transform="scale(1.2987674,0.76996082)"
       style="font-size:107.54125214px;font-style:italic;font-variant:normal;font-weight:bold;font-stretch:normal;text-align:start;line-height:125%;letter-spacing:0px;word-spacing:0px;writing-mode:lr-tb;text-anchor:start;fill:#b80017;fill-opacity:1;stroke:none;font-family:Dream Orphans;-inkscape-font-specification:Dream Orphans Bold Italic"
       id="text4249-6">
      <path
         d="m 67.57668,939.65624 11.506914,0 1.505577,-34.62828 -13.012491,34.62828 m 23.766617,24.94958 -13.335116,0 0.752789,-18.38956 -13.872821,0 -7.312806,18.38956 -7.527887,0 31.939752,-83.77464 12.689867,0 -3.333778,83.77464"
         style=""
         id="path3113" />
      <path
         d="m 137.79272,963.31532 -3.44132,0.86033 -16.34627,-60.43818 -12.90495,60.7608 -7.850516,0 17.744306,-83.77463 11.29183,0 11.93708,44.30699 9.35609,-44.30699 7.74297,0 -17.52922,82.59168"
         style=""
         id="path3115" />
      <path
         d="m 160.83511,939.65624 11.50691,0 1.50558,-34.62828 -13.01249,34.62828 m 23.76662,24.94958 -13.33512,0 0.75279,-18.38956 -13.87282,0 -7.31281,18.38956 -7.52788,0 31.93975,-83.77464 12.68987,0 -3.33378,83.77464"
         style=""
         id="path3117" />
      <path
         d="m 222.98556,964.49827 -32.47746,0 17.7443,-83.77463 13.12004,0 -16.34627,77.32216 19.35742,0 -1.39803,6.45247"
         style=""
         id="path3119" />
      <path
         d="m 278.61126,880.72364 -22.90628,35.81124 -10.21642,47.96339 -13.22758,0 8.81839,-41.51092 -5.16198,-42.37125 13.87282,0.10754 2.47345,30.54171 17.63676,-30.54171 8.71084,0"
         style=""
         id="path3121" />
      <path
         d="m 317.3278,894.27384 c -1.9358,-4.66005 -3.62061,-6.99011 -5.05444,-6.99019 l -6.34493,0 -16.34627,77.21462 -13.22758,0 16.34627,-77.21462 -7.95805,0 c -2.43762,0.71702 -4.66014,3.01123 -6.66756,6.88265 l 2.79607,-13.44266 39.25256,0 -2.79607,13.5502"
         style=""
         id="path3123" />
      <path
         d="m 321.14886,964.49827 -13.22757,0 17.74431,-83.77463 13.22757,0 -17.74431,83.77463"
         style=""
         id="path3125" />
      <path
         d="m 382.69102,898.03778 c -0.21514,-1.50551 -0.68115,-2.90355 -1.39803,-4.19411 -0.717,-1.29042 -1.54148,-2.40168 -2.47345,-3.33378 -0.93208,-0.93195 -2.00749,-1.64889 -3.22624,-2.15082 -1.14716,-0.50179 -2.33011,-0.75272 -3.54886,-0.75279 -5.16202,7e-5 -9.78629,4.26587 -13.87282,12.79741 -3.01119,6.16575 -5.41294,13.5144 -7.20527,22.04595 -1.79237,8.31656 -2.54516,15.70105 -2.25836,22.1535 0.43014,8.7467 2.93943,13.12004 7.52788,13.12004 2.29418,0 4.80348,-0.82448 7.52789,-2.47345 2.43756,-1.50557 4.9827,-3.83563 7.63543,-6.99019 l 7.85051,0 c -6.16574,9.24856 -12.65406,14.51807 -19.46496,15.80857 -1.43392,0.28677 -2.83196,0.50185 -4.19411,0.64525 -1.29053,0.14338 -2.61687,0.21508 -3.97903,0.21508 -10.0372,0 -15.66519,-5.16198 -16.88398,-15.48594 -0.78864,-5.80721 0.14338,-15.05575 2.79608,-27.74564 2.36589,-11.11255 5.48458,-19.71584 9.35608,-25.8099 5.30535,-8.10137 12.79738,-13.04826 22.47613,-14.8407 0.86028,-0.14331 1.75646,-0.25085 2.68853,-0.32262 1.00367,-0.14331 1.97154,-0.215 2.90361,-0.21508 8.10139,8e-5 13.33505,5.1262 15.70102,15.3784 l -7.95805,2.15082"
         style=""
         id="path3127" />
      <path
         d="m 423.25929,944.60314 c -1.29054,6.02232 -4.48093,11.00506 -9.57117,14.94824 -4.73185,3.51301 -9.75043,5.26951 -15.05578,5.26952 -7.59959,-1e-5 -12.61818,-4.3375 -15.05577,-13.01249 l 7.63543,-4.83936 c 0.50184,2.93947 1.50556,5.34122 3.01115,7.20526 1.50556,1.79236 3.4413,2.68854 5.80723,2.68854 2.1508,0 4.12239,-1.00372 5.91477,-3.01116 1.86402,-2.22251 3.2979,-5.55628 4.30165,-10.00134 0.93199,-4.5884 -0.0717,-9.10513 -3.01116,-13.55019 -3.29795,-3.87145 -6.52419,-7.74294 -9.67871,-11.61446 -3.58472,-5.23363 -4.66014,-11.29178 -3.22624,-18.17447 1.29048,-5.87886 4.48087,-10.71821 9.57117,-14.51807 4.87518,-3.65632 10.0013,-5.48452 15.3784,-5.4846 6.02227,8e-5 10.53899,3.47724 13.5502,10.4315 l -6.88264,5.37706 c -2.07918,-5.2336 -4.44508,-7.85044 -7.09772,-7.85051 -2.86781,7e-5 -5.26956,1.03964 -7.20527,3.1187 -1.86408,2.0075 -3.11872,4.55264 -3.76394,7.63542 -1.14714,5.23374 -0.21511,9.858 2.79607,13.87283 1.64893,1.93578 3.26205,3.87152 4.83936,5.80722 1.57723,1.93579 3.19035,3.90737 4.83936,5.91477 3.58466,5.52048 4.55253,12.11634 2.90361,19.78759"
         style=""
         id="path3129" />
    </g>
  </g>
</svg>
